<?xml version="1.0" encoding="UTF-8"?>
<svg version="1.1" xmlns="http://www.w3.org/2000/svg" width="512" height="512">
<path d="M0 0 C2.43625718 0.93369997 4.83400753 1.93436295 7.23220825 2.96191406 C8.59376793 3.52996765 8.59376793 3.52996765 9.98283386 4.10949707 C12.956852 5.35267979 15.9244962 6.61037924 18.8923645 7.86816406 C20.94983687 8.7312653 23.00778493 9.59323339 25.06619263 10.45410156 C28.22494485 11.77551583 31.38327517 13.09786761 34.53991699 14.42431641 C41.4983663 17.34791212 48.47087221 20.23445056 55.45877075 23.08691406 C56.35563095 23.45312866 57.25249115 23.81934326 58.17652893 24.19665527 C61.60322865 25.59495621 65.03044033 26.9919896 68.45849609 28.38696289 C70.79147532 29.33694723 73.12326669 30.28979535 75.4548645 31.24316406 C76.46904198 31.65447571 76.46904198 31.65447571 77.50370789 32.07409668 C88.57478754 36.60801013 88.57478754 36.60801013 89.9548645 39.36816406 C90.72793163 45.69765119 89.6130234 48.725385 85.78982544 53.76000977 C85.18428833 54.51757568 84.57875122 55.2751416 83.9548645 56.05566406 C83.33128052 56.86801514 82.70769653 57.68036621 82.06521606 58.51733398 C80.73237205 60.25079113 79.39129205 61.9779416 78.04275513 63.69921875 C74.55330364 68.15977577 71.13491364 72.67438493 67.7048645 77.18066406 C67.02440063 78.07019775 66.34393677 78.95973145 65.64285278 79.8762207 C61.15113708 85.75542117 56.79674657 91.7081392 52.52908325 97.75097656 C49.28717035 102.32918057 45.96509957 106.84845098 42.6423645 111.36816406 C42.0550354 112.17012207 41.4677063 112.97208008 40.86257935 113.79833984 C39.24130639 115.99973105 37.60329853 118.18706306 35.9548645 120.36816406 C35.49748901 120.9861084 35.04011353 121.60405273 34.56887817 122.24072266 C31.52688756 126.17003317 31.52688756 126.17003317 28.85720825 127.09472656 C25.58722076 126.92570136 23.41934441 126.73427853 20.81521606 124.68164062 C18.67235371 122.01684225 18.02814353 120.04490175 17.2517395 116.72753906 C16.993927 115.65761719 16.7361145 114.58769531 16.4704895 113.48535156 C16.21783325 112.37417969 15.965177 111.26300781 15.7048645 110.11816406 C15.302677 108.42820313 15.302677 108.42820313 14.8923645 106.70410156 C14.23367794 103.92820818 13.58840124 101.14988548 12.9548645 98.36816406 C-4.0988892 97.97207688 -20.42423388 102.65583787 -35.0451355 111.36816406 C-34.38126831 111.58730469 -33.71740112 111.80644531 -33.03341675 112.03222656 C-27.00382296 114.19759893 -23.52531834 115.93037837 -20.0451355 121.36816406 C-17.72766575 126.72203779 -17.78486918 131.63674789 -17.849823 137.36035156 C-17.85406784 138.77926193 -17.85406784 138.77926193 -17.85839844 140.22683716 C-17.86954618 143.232411 -17.89464084 146.23768108 -17.9201355 149.24316406 C-17.93017228 151.28743058 -17.93929691 153.33170179 -17.94747925 155.37597656 C-17.96946782 160.3734885 -18.00396041 165.37077487 -18.0451355 170.36816406 C-17.10049438 170.55572266 -16.15585327 170.74328125 -15.18258667 170.93652344 C-13.93453247 171.19240234 -12.68647827 171.44828125 -11.40060425 171.71191406 C-10.16721313 171.96134766 -8.93382202 172.21078125 -7.66305542 172.46777344 C4.23036042 175.4276842 13.49466038 183.56174844 20.13064575 193.68847656 C26.00898345 204.17942293 27.22257712 212.59258576 27.087677 224.44238281 C27.08848303 226.99121214 27.09114241 229.54004144 27.0954895 232.08886719 C27.09351884 236.08562135 27.08288955 240.08096256 27.03396606 244.07739258 C26.99501015 247.94994264 27.00600918 251.81974232 27.025177 255.69238281 C26.98664108 257.48623665 26.98664108 257.48623665 26.94732666 259.31632996 C26.82120079 265.27486562 26.82120079 265.27486562 29.7013855 270.16543579 C31.79019086 271.52038602 31.79019086 271.52038602 33.96899414 272.45149231 C39.32423492 274.92345526 41.87561629 280.65365731 44.10794067 285.80786133 C45.57525534 290.24364365 45.52548138 294.57661119 45.4861145 299.21191406 C45.48994141 300.22104858 45.49376831 301.23018311 45.49771118 302.26989746 C45.50041787 304.39104213 45.49314439 306.51222088 45.47634888 308.63330078 C45.45492212 311.85948896 45.47619386 315.08345048 45.5017395 318.30957031 C45.49909601 320.38118976 45.49397058 322.45280783 45.4861145 324.52441406 C45.49421143 325.47779663 45.50230835 326.4311792 45.51065063 327.41345215 C45.37879907 336.94257128 42.13366753 343.77023677 35.697052 350.70410156 C33.0919567 353.19237645 30.66390549 355.36816406 26.9548645 355.36816406 C26.96485725 356.4060054 26.96485725 356.4060054 26.97505188 357.46481323 C27.03547418 364.02505419 27.08099562 370.58521607 27.11030102 377.14567375 C27.12587439 380.51748522 27.14695733 383.88906437 27.18118286 387.26074219 C27.21778902 391.14817308 27.23464236 395.03527906 27.24783325 398.92285156 C27.26331711 400.11804413 27.27880096 401.31323669 27.29475403 402.54464722 C27.29737979 415.75992809 23.19980274 425.72553978 15.7673645 436.55566406 C3.88175218 448.44127638 -9.18620896 453.55696456 -25.81422311 453.64031297 C-27.06772599 453.63653365 -28.32122886 453.63275432 -29.61271667 453.62886047 C-30.9772429 453.63188514 -32.34176743 453.6357762 -33.70628899 453.64045304 C-37.43673792 453.65070128 -41.1670904 453.64855935 -44.89754713 453.64427245 C-48.92834142 453.64179942 -52.95911284 453.65082657 -56.98989868 453.65830994 C-64.87950203 453.67104322 -72.76907132 453.67285231 -80.65868322 453.67050967 C-87.07379689 453.66872472 -93.48890024 453.67047996 -99.90401268 453.67473412 C-100.81797317 453.6753293 -101.73193365 453.67592449 -102.67358991 453.67653772 C-104.53047433 453.67774951 -106.38735875 453.67896364 -108.24424317 453.6801801 C-125.64886282 453.69105048 -143.05346309 453.68889559 -160.45808383 453.68279525 C-176.3667842 453.67762728 -192.27542332 453.68887926 -208.18411157 453.70789347 C-224.53347965 453.72728401 -240.88281877 453.73552569 -257.23219842 453.73177022 C-266.40535669 453.72985993 -275.57846284 453.73232891 -284.75161171 453.74648476 C-292.56141502 453.75841507 -300.37113413 453.759785 -308.18093864 453.74769459 C-312.16219141 453.74181731 -316.14329029 453.74067442 -320.1245327 453.75269699 C-323.77578416 453.7635945 -327.42675396 453.76040696 -331.07799246 453.74643531 C-333.01027327 453.74255905 -334.94256677 453.75330385 -336.87481767 453.76473218 C-351.17232698 453.67676876 -364.65101504 450.10893053 -375.36154175 440.16894531 C-390.44071023 424.04018274 -390.77872912 407.82333954 -390.67623901 386.87695312 C-390.68138343 384.2014632 -390.68848135 381.52604233 -390.69792175 378.85057068 C-390.71620536 372.3665987 -390.70784975 365.88293005 -390.68983353 359.39896783 C-390.67575575 354.12715028 -390.67192578 348.85541456 -390.6752758 343.58358002 C-390.67575324 342.83069049 -390.67623069 342.07780096 -390.6767226 341.30209659 C-390.67774901 339.77223436 -390.67880437 338.24237215 -390.67988836 336.71250996 C-390.68843602 323.21599444 -390.6718409 309.7196246 -390.64205933 296.22314453 C-390.61320361 283.14593392 -390.60615175 270.06893295 -390.62155151 256.99169922 C-390.63833153 242.72298761 -390.64233133 228.4543753 -390.62484115 214.18566108 C-390.6229969 212.66293575 -390.62116217 211.1402104 -390.61933708 209.61748505 C-390.61842499 208.86841989 -390.6175129 208.11935474 -390.61657317 207.34759064 C-390.61098073 202.08372261 -390.61426265 196.81990328 -390.62088203 191.5560379 C-390.62863172 185.13915619 -390.62180337 178.72248042 -390.59670699 172.30564007 C-390.58425218 169.03540273 -390.58018063 165.76554909 -390.58924866 162.49529076 C-390.59796169 158.94340511 -390.5819543 155.39244561 -390.55979919 151.84063721 C-390.56803996 150.81708641 -390.57628073 149.79353562 -390.58477122 148.73896813 C-390.46035874 137.90275323 -386.8592077 130.3262645 -379.40060425 122.56347656 C-368.65998156 112.55314497 -356.32780521 111.91243446 -342.318573 111.85644531 C-340.71859383 111.83957009 -339.11862769 111.8214161 -337.51867676 111.80204773 C-333.33983432 111.75484975 -329.16104472 111.72484619 -324.98202515 111.6986084 C-320.70477875 111.66864913 -316.42771391 111.62217222 -312.15060425 111.57714844 C-303.78220452 111.49145966 -295.41378769 111.42396274 -287.0451355 111.36816406 C-287.04817184 110.68916046 -287.05120819 110.01015686 -287.05433655 109.31057739 C-287.05669815 108.41579681 -287.05905975 107.52101624 -287.06149292 106.59912109 C-287.06452927 105.71386749 -287.06756561 104.82861389 -287.07069397 103.91653442 C-286.84735824 81.64829515 -277.81322698 61.47317849 -264.0451355 44.36816406 C-263.2613855 43.31628906 -262.4776355 42.26441406 -261.6701355 41.18066406 C-246.03046569 24.42387499 -222.74498342 12.47689338 -199.68405151 11.24169922 C-172.37011098 10.42775053 -149.25980593 16.46358405 -128.0451355 34.36816406 C-126.529198 35.51285156 -126.529198 35.51285156 -124.9826355 36.68066406 C-107.49096698 52.68367995 -96.23000011 76.67087178 -95.0451355 100.36816406 C-94.97714481 104.36990154 -94.98419522 108.36641895 -95.0451355 112.36816406 C-92.0751355 112.03816406 -89.1051355 111.70816406 -86.0451355 111.36816406 C-85.62554565 109.91410156 -85.62554565 109.91410156 -85.19747925 108.43066406 C-76.08196881 77.60415944 -58.91862838 50.44146464 -30.21408081 34.4296875 C-23.4424726 30.84050737 -16.40300286 28.47192212 -9.0451355 26.36816406 C-9.92328182 21.72519892 -10.78225666 17.18447204 -12.2326355 12.68066406 C-13.18556237 8.79565453 -13.08354292 6.22510591 -12.0451355 2.36816406 C-8.71485626 -1.45548987 -4.70235299 -1.45277201 0 0 Z " fill="#CD9C75" transform="translate(406.0451354980469,29.6318359375)"/>
<path d="M0 0 C2.43625718 0.93369997 4.83400753 1.93436295 7.23220825 2.96191406 C8.59376793 3.52996765 8.59376793 3.52996765 9.98283386 4.10949707 C12.956852 5.35267979 15.9244962 6.61037924 18.8923645 7.86816406 C20.94983687 8.7312653 23.00778493 9.59323339 25.06619263 10.45410156 C28.22494485 11.77551583 31.38327517 13.09786761 34.53991699 14.42431641 C41.4983663 17.34791212 48.47087221 20.23445056 55.45877075 23.08691406 C56.35563095 23.45312866 57.25249115 23.81934326 58.17652893 24.19665527 C61.60322865 25.59495621 65.03044033 26.9919896 68.45849609 28.38696289 C70.79147532 29.33694723 73.12326669 30.28979535 75.4548645 31.24316406 C76.46904198 31.65447571 76.46904198 31.65447571 77.50370789 32.07409668 C88.57478754 36.60801013 88.57478754 36.60801013 89.9548645 39.36816406 C90.72793163 45.69765119 89.6130234 48.725385 85.78982544 53.76000977 C85.18428833 54.51757568 84.57875122 55.2751416 83.9548645 56.05566406 C83.33128052 56.86801514 82.70769653 57.68036621 82.06521606 58.51733398 C80.73237205 60.25079113 79.39129205 61.9779416 78.04275513 63.69921875 C74.55330364 68.15977577 71.13491364 72.67438493 67.7048645 77.18066406 C67.02440063 78.07019775 66.34393677 78.95973145 65.64285278 79.8762207 C61.15113708 85.75542117 56.79674657 91.7081392 52.52908325 97.75097656 C49.28717035 102.32918057 45.96509957 106.84845098 42.6423645 111.36816406 C42.0550354 112.17012207 41.4677063 112.97208008 40.86257935 113.79833984 C39.24130639 115.99973105 37.60329853 118.18706306 35.9548645 120.36816406 C35.49748901 120.9861084 35.04011353 121.60405273 34.56887817 122.24072266 C31.52688756 126.17003317 31.52688756 126.17003317 28.85720825 127.09472656 C25.58722076 126.92570136 23.41934441 126.73427853 20.81521606 124.68164062 C18.67235371 122.01684225 18.02814353 120.04490175 17.2517395 116.72753906 C16.993927 115.65761719 16.7361145 114.58769531 16.4704895 113.48535156 C16.21783325 112.37417969 15.965177 111.26300781 15.7048645 110.11816406 C15.302677 108.42820313 15.302677 108.42820313 14.8923645 106.70410156 C14.23367794 103.92820818 13.58840124 101.14988548 12.9548645 98.36816406 C-4.0988892 97.97207688 -20.42423388 102.65583787 -35.0451355 111.36816406 C-34.38126831 111.58730469 -33.71740112 111.80644531 -33.03341675 112.03222656 C-27.00382296 114.19759893 -23.52531834 115.93037837 -20.0451355 121.36816406 C-17.72766575 126.72203779 -17.78486918 131.63674789 -17.849823 137.36035156 C-17.85406784 138.77926193 -17.85406784 138.77926193 -17.85839844 140.22683716 C-17.86954618 143.232411 -17.89464084 146.23768108 -17.9201355 149.24316406 C-17.93017228 151.28743058 -17.93929691 153.33170179 -17.94747925 155.37597656 C-17.96946782 160.3734885 -18.00396041 165.37077487 -18.0451355 170.36816406 C-17.10049438 170.55572266 -16.15585327 170.74328125 -15.18258667 170.93652344 C-13.93453247 171.19240234 -12.68647827 171.44828125 -11.40060425 171.71191406 C-10.16721313 171.96134766 -8.93382202 172.21078125 -7.66305542 172.46777344 C4.23036042 175.4276842 13.49466038 183.56174844 20.13064575 193.68847656 C26.00898345 204.17942293 27.22257712 212.59258576 27.087677 224.44238281 C27.08848303 226.99121214 27.09114241 229.54004144 27.0954895 232.08886719 C27.09351884 236.08562135 27.08288955 240.08096256 27.03396606 244.07739258 C26.99501015 247.94994264 27.00600918 251.81974232 27.025177 255.69238281 C26.98664108 257.48623665 26.98664108 257.48623665 26.94732666 259.31632996 C26.82120079 265.27486562 26.82120079 265.27486562 29.7013855 270.16543579 C31.79019086 271.52038602 31.79019086 271.52038602 33.96899414 272.45149231 C39.32423492 274.92345526 41.87561629 280.65365731 44.10794067 285.80786133 C45.57525534 290.24364365 45.52548138 294.57661119 45.4861145 299.21191406 C45.48994141 300.22104858 45.49376831 301.23018311 45.49771118 302.26989746 C45.50041787 304.39104213 45.49314439 306.51222088 45.47634888 308.63330078 C45.45492212 311.85948896 45.47619386 315.08345048 45.5017395 318.30957031 C45.49909601 320.38118976 45.49397058 322.45280783 45.4861145 324.52441406 C45.49421143 325.47779663 45.50230835 326.4311792 45.51065063 327.41345215 C45.37879907 336.94257128 42.13366753 343.77023677 35.697052 350.70410156 C33.0919567 353.19237645 30.66390549 355.36816406 26.9548645 355.36816406 C26.96485725 356.4060054 26.96485725 356.4060054 26.97505188 357.46481323 C27.03547418 364.02505419 27.08099562 370.58521607 27.11030102 377.14567375 C27.12587439 380.51748522 27.14695733 383.88906437 27.18118286 387.26074219 C27.21778902 391.14817308 27.23464236 395.03527906 27.24783325 398.92285156 C27.26331711 400.11804413 27.27880096 401.31323669 27.29475403 402.54464722 C27.29737979 415.75992809 23.19980274 425.72553978 15.7673645 436.55566406 C3.88175218 448.44127638 -9.18620896 453.55696456 -25.81422311 453.64031297 C-27.06772599 453.63653365 -28.32122886 453.63275432 -29.61271667 453.62886047 C-30.9772429 453.63188514 -32.34176743 453.6357762 -33.70628899 453.64045304 C-37.43673792 453.65070128 -41.1670904 453.64855935 -44.89754713 453.64427245 C-48.92834142 453.64179942 -52.95911284 453.65082657 -56.98989868 453.65830994 C-64.87950203 453.67104322 -72.76907132 453.67285231 -80.65868322 453.67050967 C-87.07379689 453.66872472 -93.48890024 453.67047996 -99.90401268 453.67473412 C-100.81797317 453.6753293 -101.73193365 453.67592449 -102.67358991 453.67653772 C-104.53047433 453.67774951 -106.38735875 453.67896364 -108.24424317 453.6801801 C-125.64886282 453.69105048 -143.05346309 453.68889559 -160.45808383 453.68279525 C-176.3667842 453.67762728 -192.27542332 453.68887926 -208.18411157 453.70789347 C-224.53347965 453.72728401 -240.88281877 453.73552569 -257.23219842 453.73177022 C-266.40535669 453.72985993 -275.57846284 453.73232891 -284.75161171 453.74648476 C-292.56141502 453.75841507 -300.37113413 453.759785 -308.18093864 453.74769459 C-312.16219141 453.74181731 -316.14329029 453.74067442 -320.1245327 453.75269699 C-323.77578416 453.7635945 -327.42675396 453.76040696 -331.07799246 453.74643531 C-333.01027327 453.74255905 -334.94256677 453.75330385 -336.87481767 453.76473218 C-351.17232698 453.67676876 -364.65101504 450.10893053 -375.36154175 440.16894531 C-390.44071023 424.04018274 -390.77872912 407.82333954 -390.67623901 386.87695312 C-390.68138343 384.2014632 -390.68848135 381.52604233 -390.69792175 378.85057068 C-390.71620536 372.3665987 -390.70784975 365.88293005 -390.68983353 359.39896783 C-390.67575575 354.12715028 -390.67192578 348.85541456 -390.6752758 343.58358002 C-390.67575324 342.83069049 -390.67623069 342.07780096 -390.6767226 341.30209659 C-390.67774901 339.77223436 -390.67880437 338.24237215 -390.67988836 336.71250996 C-390.68843602 323.21599444 -390.6718409 309.7196246 -390.64205933 296.22314453 C-390.61320361 283.14593392 -390.60615175 270.06893295 -390.62155151 256.99169922 C-390.63833153 242.72298761 -390.64233133 228.4543753 -390.62484115 214.18566108 C-390.6229969 212.66293575 -390.62116217 211.1402104 -390.61933708 209.61748505 C-390.61842499 208.86841989 -390.6175129 208.11935474 -390.61657317 207.34759064 C-390.61098073 202.08372261 -390.61426265 196.81990328 -390.62088203 191.5560379 C-390.62863172 185.13915619 -390.62180337 178.72248042 -390.59670699 172.30564007 C-390.58425218 169.03540273 -390.58018063 165.76554909 -390.58924866 162.49529076 C-390.59796169 158.94340511 -390.5819543 155.39244561 -390.55979919 151.84063721 C-390.56803996 150.81708641 -390.57628073 149.79353562 -390.58477122 148.73896813 C-390.46035874 137.90275323 -386.8592077 130.3262645 -379.40060425 122.56347656 C-368.65998156 112.55314497 -356.32780521 111.91243446 -342.318573 111.85644531 C-340.71859383 111.83957009 -339.11862769 111.8214161 -337.51867676 111.80204773 C-333.33983432 111.75484975 -329.16104472 111.72484619 -324.98202515 111.6986084 C-320.70477875 111.66864913 -316.42771391 111.62217222 -312.15060425 111.57714844 C-303.78220452 111.49145966 -295.41378769 111.42396274 -287.0451355 111.36816406 C-287.04817184 110.68916046 -287.05120819 110.01015686 -287.05433655 109.31057739 C-287.05669815 108.41579681 -287.05905975 107.52101624 -287.06149292 106.59912109 C-287.06452927 105.71386749 -287.06756561 104.82861389 -287.07069397 103.91653442 C-286.84735824 81.64829515 -277.81322698 61.47317849 -264.0451355 44.36816406 C-263.2613855 43.31628906 -262.4776355 42.26441406 -261.6701355 41.18066406 C-246.03046569 24.42387499 -222.74498342 12.47689338 -199.68405151 11.24169922 C-172.37011098 10.42775053 -149.25980593 16.46358405 -128.0451355 34.36816406 C-126.529198 35.51285156 -126.529198 35.51285156 -124.9826355 36.68066406 C-107.49096698 52.68367995 -96.23000011 76.67087178 -95.0451355 100.36816406 C-94.97714481 104.36990154 -94.98419522 108.36641895 -95.0451355 112.36816406 C-92.0751355 112.03816406 -89.1051355 111.70816406 -86.0451355 111.36816406 C-85.62554565 109.91410156 -85.62554565 109.91410156 -85.19747925 108.43066406 C-76.08196881 77.60415944 -58.91862838 50.44146464 -30.21408081 34.4296875 C-23.4424726 30.84050737 -16.40300286 28.47192212 -9.0451355 26.36816406 C-9.92328182 21.72519892 -10.78225666 17.18447204 -12.2326355 12.68066406 C-13.18556237 8.79565453 -13.08354292 6.22510591 -12.0451355 2.36816406 C-8.71485626 -1.45548987 -4.70235299 -1.45277201 0 0 Z M-373.0451355 176.36816406 C-373.13645699 205.75334091 -373.20721086 235.13850766 -373.24939682 264.52379747 C-373.25439943 267.99584569 -373.25957674 271.46789362 -373.26486206 274.93994141 C-373.2659113 275.63114093 -373.26696054 276.32234045 -373.26804158 277.03448541 C-373.28542967 288.21486436 -373.31695851 299.39516074 -373.35374668 310.57549076 C-373.39120064 322.05420437 -373.41308149 333.53285999 -373.42148948 345.01163352 C-373.42670099 351.45630783 -373.43893715 357.90079507 -373.46805573 364.34540939 C-373.495254 370.41432657 -373.50357142 376.48298003 -373.49756622 382.55195236 C-373.49866447 384.77632074 -373.50659178 387.00069816 -373.5219574 389.22501373 C-373.54195397 392.2696638 -373.53703909 395.31332727 -373.52615356 398.35800171 C-373.53780493 399.2315733 -373.5494563 400.10514489 -373.56146073 401.00518835 C-373.46325513 411.21588396 -369.51466612 418.80376316 -362.552948 426.09863281 C-355.43634778 432.53904516 -348.83659585 435.48530054 -339.27286243 435.50238514 C-337.53244906 435.50907191 -337.53244906 435.50907191 -335.75687581 435.51589376 C-334.48646638 435.51570939 -333.21605695 435.51552503 -331.90715027 435.51533508 C-330.54052714 435.51863599 -329.17390498 435.52236204 -327.80728406 435.52647656 C-324.05256294 435.53647865 -320.29785782 435.54021046 -316.54312527 435.54286587 C-312.49321575 435.54677417 -308.44331882 435.55635204 -304.39341736 435.56507874 C-294.61413376 435.5848268 -284.83484915 435.59490659 -275.05555061 435.60380653 C-270.4489358 435.60819155 -265.84232214 435.61355775 -261.23570824 435.61879539 C-245.92058329 435.6358049 -230.60545906 435.65029931 -215.29032612 435.65754414 C-211.31740124 435.65945398 -207.34447637 435.66137433 -203.37155151 435.66333008 C-201.89040128 435.66405569 -201.89040128 435.66405569 -200.37932881 435.66479596 C-184.38171356 435.67309722 -168.38417306 435.69843699 -152.38659046 435.73091076 C-135.9582621 435.7639868 -119.52997172 435.78199333 -103.10160989 435.78518838 C-93.8792448 435.78735281 -84.65698876 435.79609184 -75.43465614 435.82164955 C-67.58113865 435.84336387 -59.72775671 435.85140331 -51.8742126 435.84168277 C-47.86888096 435.83714038 -43.86382898 435.83902062 -39.85853577 435.85844421 C-36.18743038 435.8760931 -32.51680831 435.87506461 -28.84569766 435.85954692 C-26.89781398 435.85605429 -24.94992513 435.8721842 -23.00211221 435.88915139 C-11.34984195 435.80393392 -3.66436164 432.78915499 4.75564575 424.73925781 C12.88336776 415.97633195 14.25491564 407.64047173 14.150177 395.96972656 C14.14734711 394.77962982 14.14451721 393.58953308 14.14160156 392.3633728 C14.13043267 388.5731997 14.10533368 384.7832654 14.0798645 380.99316406 C14.06983047 378.41894873 14.06070536 375.84472969 14.05252075 373.27050781 C14.03050407 366.96964548 13.997059 360.66892184 13.9548645 354.36816406 C12.84954376 354.36673904 11.74422302 354.36531403 10.60540771 354.36384583 C0.15986005 354.34713521 -10.28530007 354.30423756 -20.73064232 354.23607349 C-26.10001524 354.20186565 -31.4691055 354.17670314 -36.83859253 354.17260742 C-42.0260012 354.16831121 -47.2127729 354.13973863 -52.39998245 354.09473228 C-54.3733511 354.08179955 -56.34679615 354.07743453 -58.32020187 354.08201027 C-70.28521179 354.1032808 -79.40757384 353.99566199 -88.9201355 345.93066406 C-95.53487274 337.95406915 -97.35732949 331.49332594 -97.4513855 321.36035156 C-97.46278564 320.39847931 -97.47418579 319.43660706 -97.4859314 318.44558716 C-97.50477446 316.41331337 -97.5178767 314.38097926 -97.52560425 312.34863281 C-97.54494598 309.27329813 -97.60700394 306.20068066 -97.6701355 303.12597656 C-97.78610096 292.39371655 -97.88381922 283.23131368 -91.0451355 274.36816406 C-83.89023807 267.29433707 -75.70819487 264.91842988 -65.87521362 264.93579102 C-64.99622406 264.92559937 -64.1172345 264.91540771 -63.21160889 264.90490723 C-60.3331349 264.8749372 -57.45499457 264.86553586 -54.5763855 264.85644531 C-52.56998604 264.83958676 -50.56359707 264.82143494 -48.55722046 264.80204773 C-43.29659299 264.75466943 -38.03600805 264.72478138 -32.77523804 264.6986084 C-27.39897261 264.66874139 -22.02285354 264.62223218 -16.646698 264.57714844 C-6.11292058 264.4912538 4.42088707 264.42384704 14.9548645 264.36816406 C15.03135781 257.43057371 15.08364947 250.49309341 15.11965942 243.55517578 C15.13468228 241.1983636 15.15510647 238.84157908 15.18118286 236.48486328 C15.21785271 233.08391465 15.23465647 229.68333785 15.24783325 226.28222656 C15.26331711 225.24015045 15.27880096 224.19807434 15.29475403 223.12442017 C15.29708521 212.83355934 12.90959189 204.753777 6.9548645 196.36816406 C6.119552 195.06878906 6.119552 195.06878906 5.2673645 193.74316406 C-2.3939992 185.87473647 -12.816044 182.30012978 -23.61446953 181.99736977 C-26.15177907 181.98401462 -28.68920787 181.98697879 -31.22650146 182.00308228 C-32.64551331 182.00122078 -34.06452391 181.99802855 -35.48353016 181.99363077 C-39.35999751 181.98533848 -43.23622619 181.99549386 -47.11267161 182.00871944 C-51.30227245 182.01966906 -55.49184997 182.01314945 -59.68145752 182.0085907 C-66.93534654 182.00285455 -74.18916863 182.00745817 -81.44305038 182.01860428 C-91.94390528 182.0342861 -102.44467045 182.02868079 -112.94552673 182.01698785 C-130.00135401 181.99810781 -147.05716905 181.98887556 -164.11300659 181.98925781 C-165.13297533 181.98927525 -166.15294407 181.9892927 -167.20382096 181.98931067 C-178.58212103 181.98976284 -189.96041671 181.99309047 -201.3387146 182.00018311 C-202.36156351 182.00081549 -203.38441242 182.00144787 -204.43825675 182.00209942 C-205.46008728 182.00273198 -206.48191782 182.00336455 -207.53471291 182.00401628 C-209.59531601 182.00528605 -211.65591911 182.00655146 -213.71652222 182.0078125 C-215.24369383 182.00875479 -215.24369383 182.00875479 -216.80171739 182.00971611 C-233.79298779 182.01967835 -250.78418534 182.01032701 -267.77544034 181.98562849 C-278.24655227 181.97121348 -288.71740741 181.973236 -299.18850447 181.99659048 C-306.36594141 182.01136279 -313.54322812 182.00815967 -320.72065912 181.99096157 C-324.85795961 181.98164493 -328.99484261 181.98041281 -333.1321106 182.00119209 C-336.92596189 182.02009741 -340.71907212 182.01566784 -344.51289834 181.9933645 C-346.52169569 181.9874716 -348.53051991 182.00605372 -350.53922927 182.02575743 C-359.02796124 181.9448603 -365.47083224 180.20264874 -373.0451355 176.36816406 Z " fill="#020101" transform="translate(406.0451354980469,29.6318359375)"/>
<path d="M0 0 C17.03625537 14.23724975 28.72477822 33.76148169 30.95263672 56.09375 C32.40406846 77.25056289 26.35546237 97.86435884 13.05859375 114.43359375 C1.43150637 127.67391492 1.43150637 127.67391492 -3.12171268 128.33373547 C-3.82864482 128.34358125 -4.53557695 128.35342703 -5.26393127 128.36357117 C-6.07819077 128.37932693 -6.89245026 128.3950827 -7.73138428 128.41131592 C-9.06619843 128.4217392 -9.06619843 128.4217392 -10.42797852 128.43237305 C-11.36820358 128.44712173 -12.30842865 128.46187042 -13.27714539 128.47706604 C-16.39438806 128.52165021 -19.51144297 128.54983515 -22.62890625 128.57421875 C-24.22784383 128.58831756 -24.22784383 128.58831756 -25.85908318 128.60270119 C-31.50507701 128.6503004 -37.15097756 128.68396869 -42.79711914 128.70776367 C-48.61603461 128.73542599 -54.43305955 128.81454781 -60.25128269 128.90530682 C-64.73561746 128.96526391 -69.21950713 128.98504472 -73.70420647 128.99427223 C-75.84800783 129.005826 -77.99178565 129.03259693 -80.13519478 129.07520103 C-99.00287118 129.42788784 -99.00287118 129.42788784 -105.47558594 123.67773438 C-107.58319092 121.27062988 -107.58319092 121.27062988 -109.25 119.0625 C-110.14074219 118.14082031 -111.03148437 117.21914062 -111.94921875 116.26953125 C-128.36576069 96.49872534 -131.88649349 73.95848287 -130.25 49.0625 C-127.49794297 28.77433554 -114.00968244 10.40758457 -98.25 -1.9375 C-68.2995297 -22.52180252 -29.05318001 -22.66498079 0 0 Z " fill="#F9B930" transform="translate(267.25,69.9375)"/>
<path d="M0 0 C0.78775818 -0.00708481 1.57551636 -0.01416962 2.387146 -0.02146912 C3.24230804 -0.0189917 4.09747009 -0.01651428 4.97854614 -0.01396179 C6.34021912 -0.02162819 6.34021912 -0.02162819 7.72940063 -0.02944946 C10.7306477 -0.04335072 13.73166523 -0.04238814 16.73294067 -0.04008484 C18.82035406 -0.04397175 20.90776665 -0.04830641 22.99517822 -0.05307007 C27.3714962 -0.06053363 31.74773352 -0.0602402 36.12405396 -0.05497742 C41.72849089 -0.04918561 47.33259704 -0.06610628 52.93697929 -0.08932209 C57.24871752 -0.10406479 61.5603762 -0.10493034 65.87213516 -0.10181236 C67.93816915 -0.1023254 70.0042076 -0.10755987 72.07021713 -0.11762428 C74.96175269 -0.12998024 77.85264563 -0.12320166 80.74417114 -0.11161804 C81.59528473 -0.11926178 82.44639832 -0.12690552 83.32330322 -0.13478088 C88.28845593 -0.0908847 91.68693899 0.51589738 95.99075317 3.26069641 C100.82473766 8.61727382 101.15941205 12.17701517 101.19387817 19.21382141 C101.19957825 20.10679932 101.20527832 20.99977722 101.21115112 21.91981506 C101.22060803 23.81288974 101.22713784 25.70598093 101.23098755 27.59907532 C101.24066791 30.48527617 101.27167408 33.3707573 101.30325317 36.25679016 C101.30978581 38.09662969 101.31503526 39.9364743 101.31887817 41.77632141 C101.33122498 42.63590454 101.34357178 43.49548767 101.35629272 44.38111877 C101.33781394 49.39283913 101.03626641 53.07630847 97.99075317 57.26069641 C92.45456678 61.84402162 87.71010129 62.99118044 80.65652466 62.89179993 C79.75951843 62.89895523 78.86251221 62.90611053 77.93832397 62.91348267 C74.99563487 62.93028715 72.05448693 62.9110171 69.11184692 62.88960266 C67.05496597 62.89043204 64.99808508 62.89289405 62.94120789 62.89691162 C58.639892 62.89976389 54.33909849 62.88512269 50.03787231 62.85762024 C44.53437182 62.82351731 39.03180362 62.82956846 33.52825832 62.84828281 C29.28419776 62.85886814 25.04035286 62.84990134 20.79631233 62.83489799 C18.76740218 62.82972845 16.73846939 62.83018302 14.7095623 62.83644295 C11.87108042 62.84191449 9.03391848 62.82145866 6.19558716 62.79414368 C5.36370377 62.80066956 4.53182037 62.80719543 3.67472839 62.81391907 C-3.13100885 62.70297648 -7.26455836 60.70048154 -12.40914917 56.12739563 C-14.75655775 51.92183085 -14.62026613 48.13888889 -14.61080933 43.39350891 C-14.61937958 42.44055939 -14.62794983 41.48760986 -14.63677979 40.50578308 C-14.64824447 38.49361848 -14.64928292 36.48137101 -14.64059448 34.4691925 C-14.6342807 31.40214923 -14.68117942 28.33898052 -14.73190308 25.27241516 C-14.73645034 23.31278459 -14.73785546 21.35314369 -14.73580933 19.39350891 C-14.75422882 18.48287689 -14.77264832 17.57224487 -14.79162598 16.63401794 C-14.70920483 10.91604231 -13.62703561 7.81471644 -9.68682861 3.63102722 C-6.6178445 1.12413097 -3.96239105 0.01193219 0 0 Z " fill="#AC6445" transform="translate(337.0092468261719,307.7393035888672)"/>
<path d="M0 0 C5.99510512 1.91208418 11.80854005 4.07485036 17.59375 6.546875 C18.38414673 6.88116516 19.17454346 7.21545532 19.9888916 7.55987549 C22.49396656 8.62004689 24.99706145 9.68479592 27.5 10.75 C30.78068397 12.14196213 34.06215594 13.53206 37.34375 14.921875 C38.14345215 15.26093872 38.9431543 15.60000244 39.76708984 15.94934082 C47.82045973 19.35869853 55.90620929 22.68795621 64 26 C62.67626016 28.79275877 61.19609726 31.26493873 59.3828125 33.765625 C58.86460937 34.48234375 58.34640625 35.1990625 57.8125 35.9375 C57.255625 36.700625 56.69875 37.46375 56.125 38.25 C55.54492188 39.04921875 54.96484375 39.8484375 54.3671875 40.671875 C50.15059769 46.46510274 45.86551035 52.20437949 41.54833984 57.92285156 C35.57308275 65.85678643 29.78824243 73.92914979 24 82 C23.34 81.67 22.68 81.34 22 81 C21.10932836 77.86393766 20.36426165 74.73184519 19.67578125 71.546875 C18.97699748 68.62675422 18.31106233 66.37133996 16.3671875 64.05078125 C12.9413094 62.53005318 9.68097634 62.51251045 6 62.5625 C5.21254395 62.57007324 4.42508789 62.57764648 3.61376953 62.58544922 C-24.78571883 63.3511902 -51.13291476 75.31963899 -70.8671875 95.625 C-73.53496697 98.59571414 -75.77090245 101.69230686 -78 105 C-78.33 105 -78.66 105 -79 105 C-78.53704189 82.39922705 -66.53797129 61.66327347 -52 45 C-51.40832031 44.30777344 -50.81664062 43.61554688 -50.20703125 42.90234375 C-37.83287279 29.48936704 -19.79757738 21.32368264 -2.03125 18.625 C0.37787414 18.11799274 0.37787414 18.11799274 2 15 C2.06239653 12.90676221 2.06239653 12.90676221 1.6875 10.6875 C1.57921875 9.89859375 1.4709375 9.1096875 1.359375 8.296875 C0.71064924 4.14329284 0.71064924 4.14329284 0 0 Z " fill="#51BE36" transform="translate(415,47)"/>
<path d="M0 0 C0.75146301 -0.00014603 1.50292603 -0.00029205 2.27716064 -0.0004425 C4.76073087 0.0002541 7.24422608 0.00803472 9.7277832 0.01586914 C11.44985412 0.01773422 13.17192556 0.0191577 14.89399719 0.02015686 C19.42645737 0.02397499 23.95888549 0.03379928 28.49133301 0.04486084 C33.11636929 0.05509008 37.74141075 0.05965773 42.36645508 0.06469727 C51.44133895 0.07542216 60.51619904 0.09249016 69.59106445 0.11352539 C69.98503418 1.33168945 70.37900391 2.54985352 70.78491211 3.80493164 C71.31639547 5.42871302 71.84814809 7.05240628 72.38012695 8.67602539 C72.63802002 9.47588867 72.89591309 10.27575195 73.16162109 11.09985352 C76.649492 21.69865504 81.74997297 30.64845416 88.98950195 39.18774414 C90.59106445 41.11352539 90.59106445 41.11352539 91.59106445 43.11352539 C78.95168031 43.20631043 66.31237755 43.27733383 53.67272186 43.32077408 C47.80325773 43.34162594 41.93402705 43.36990021 36.06469727 43.4152832 C30.39774793 43.45882586 24.73102281 43.48268056 19.06391907 43.49303436 C16.90461194 43.50041056 14.74531673 43.51481456 12.58610535 43.53644562 C9.55559008 43.56559098 6.52599477 43.56947667 3.49536133 43.56762695 C2.60775116 43.58200806 1.72014099 43.59638916 0.80563354 43.61120605 C-6.00244804 43.56640471 -11.1966948 41.82966718 -16.43237305 37.40258789 C-21.50015663 31.16306244 -22.90949914 25.83110838 -22.71362305 17.78930664 C-21.91195447 10.74901211 -17.49223292 6.93147285 -12.3112793 2.49633789 C-8.44875467 -0.31132888 -4.56065373 -0.02311946 0 0 Z " fill="#AE6546" transform="translate(55.408935546875,154.886474609375)"/>
<path d="M0 0 C1.0209375 0.02900391 1.0209375 0.02900391 2.0625 0.05859375 C3.0834375 0.06052734 3.0834375 0.06052734 4.125 0.0625 C6.72133445 0.64353452 7.57334036 1.28085316 9.0625 3.49609375 C9.2578125 6.45703125 9.2578125 6.45703125 9.1875 9.87109375 C9.27893536 14.59858521 9.27893536 14.59858521 11.91015625 18.21484375 C13.48614616 18.99363008 15.08702343 19.72373478 16.70703125 20.40625 C21.78011901 22.75349956 24.77987237 27.34661829 26.9375 32.37109375 C28.33210798 36.68933774 29.00473404 41.01387763 28.0625 45.49609375 C25.64228103 48.3312074 24.13941649 49.2859637 20.5 49.99609375 C17.07401927 49.29332847 16.09064763 48.36347488 14.0625 45.49609375 C13.47309041 43.21787938 13.05100742 40.93425758 12.62109375 38.62109375 C11.84609475 35.67284581 10.49970874 34.2686092 8.0625 32.49609375 C4.40961807 31.27846644 1.90495864 31.10533524 -1.9375 31.49609375 C-5.14363573 33.39602604 -7.33652918 34.83083382 -8.63671875 38.43359375 C-9.22405238 41.76813307 -9.09769902 44.02617664 -8 47.24609375 C-3.04062437 52.65632171 4.86910506 54.69195427 11.60644531 57.21459961 C18.63326076 59.91616247 23.279435 62.91075838 27.0625 69.49609375 C29.5949216 77.09335854 28.83951975 85.96037729 25.53125 93.203125 C21.78570827 99.05055319 16.58112555 103.19675493 10.0625 105.49609375 C10.04832031 106.388125 10.03414062 107.28015625 10.01953125 108.19921875 C9.97183594 109.3696875 9.92414063 110.54015625 9.875 111.74609375 C9.84019531 112.90625 9.80539063 114.06640625 9.76953125 115.26171875 C9.0625 118.49609375 9.0625 118.49609375 6.70703125 120.91796875 C4.0625 122.49609375 4.0625 122.49609375 0.9375 122.49609375 C-2.43504296 121.32303533 -3.17942527 120.54823522 -4.9375 117.49609375 C-5.16796875 114.62109375 -5.16796875 114.62109375 -5.125 111.49609375 C-5.22598922 108.31700822 -5.22598922 108.31700822 -5.9375 105.49609375 C-7.78418697 103.88080982 -9.43710835 103.29089256 -11.73828125 102.46875 C-16.96504433 100.15709102 -20.12003812 94.9200596 -22.875 90.12109375 C-24.23495912 85.48123322 -24.81882741 81.28519364 -23.9375 76.49609375 C-21.8125 73.80859375 -21.8125 73.80859375 -18.9375 72.49609375 C-15.76022553 72.55963924 -13.82812912 72.79172601 -11.3125 74.78125 C-9.65059377 76.85391146 -9.42805672 78.25870057 -9.0625 80.87109375 C-8.39040176 84.16706353 -7.81587027 85.67669547 -5.875 88.55859375 C-1.82865218 91.22746146 1.34705866 91.274869 6.0625 90.49609375 C9.33271081 89.17409363 10.60815257 88.23957136 12.4375 85.24609375 C13.29942194 81.45363721 13.2618242 79.22732458 12.0625 75.49609375 C7.31742444 70.8040358 0.28760734 69.00854682 -5.8125 66.7421875 C-12.68614148 64.00132296 -17.70747431 60.59230725 -21.9375 54.49609375 C-24.71597368 47.45663924 -25.29750004 39.93430816 -23.0625 32.640625 C-20.48797923 27.04273608 -17.15033833 22.83001892 -11.9375 19.49609375 C-10.82375 19.12484375 -9.71 18.75359375 -8.5625 18.37109375 C-5.65987952 16.7587305 -5.65987952 16.7587305 -5.44921875 13.7890625 C-5.31818949 11.66433318 -5.24619482 9.53500097 -5.23828125 7.40625 C-4.84897055 3.63954259 -3.89549837 0.99743607 0 0 Z " fill="#030200" transform="translate(214.9375,72.50390625)"/>
<path d="M0 0 C3.63 0 7.26 0 11 0 C11.05607422 2.42472656 11.05607422 2.42472656 11.11328125 4.8984375 C11.17898616 7.05731313 11.2454319 9.21616629 11.3125 11.375 C11.34633789 12.96634766 11.34633789 12.96634766 11.38085938 14.58984375 C11.64634787 26.18848516 11.64634787 26.18848516 17 36 C21.05261287 36.34490322 22.54754176 36.30163882 26 34 C27.2223575 30.88065018 27.2223575 30.88065018 28.25 27.1875 C30.60836564 19.57326908 33.77092133 12.79301675 38 6 C38.50015625 5.0615625 39.0003125 4.123125 39.515625 3.15625 C43.57418662 -0.36627518 48.01338707 0.4337326 53.1875 0.625 C54.21037109 0.63917969 55.23324219 0.65335938 56.28710938 0.66796875 C63.81788465 0.81788465 63.81788465 0.81788465 65 2 C65.101137 5.01808063 65.13968909 8.01280513 65.1328125 11.03125 C65.13376923 11.93750122 65.13472595 12.84375244 65.13571167 13.77746582 C65.13639353 15.69751047 65.13453882 17.61755741 65.13037109 19.53759766 C65.12502292 22.48735704 65.13031588 25.43696414 65.13671875 28.38671875 C65.13605797 30.24739617 65.13477681 32.1080735 65.1328125 33.96875 C65.13483673 34.85727661 65.13686096 35.74580322 65.13894653 36.66125488 C65.11494988 42.88505012 65.11494988 42.88505012 64 44 C61.32212027 44.09512944 58.67011131 44.12555279 55.99194336 44.11352539 C55.15299026 44.11367142 54.31403717 44.11381744 53.44966125 44.1139679 C50.66302956 44.1132685 47.87646384 44.10547485 45.08984375 44.09765625 C43.16313209 44.09579217 41.23641995 44.09436822 39.30970764 44.09336853 C34.22812603 44.08954259 29.1465728 44.07971166 24.06500244 44.06866455 C18.88383366 44.05845206 13.70266031 44.05387126 8.52148438 44.04882812 C-1.65235625 44.03808946 -11.82617577 44.02101213 -22 44 C-20.27775166 40.4174368 -18.16096142 37.4009713 -15.8125 34.1875 C-8.38514347 23.70332158 -3.78159612 12.25237143 0 0 Z " fill="#AB6345" transform="translate(310,154)"/>
<path d="M0 0 C4.49150762 2.98933116 7.31354683 6.50990616 9.7109375 11.3046875 C11.08952964 18.47336665 11.41985392 25.29695773 7.671875 31.76953125 C4.13856862 36.49093773 -0.0386539 39.7473927 -5.6640625 41.5546875 C-12.49577124 42.41277652 -18.85328982 42.70276154 -24.7890625 38.8671875 C-30.30754447 34.50564146 -34.15137808 29.87673638 -35 22.72265625 C-35.10060421 15.04655529 -34.34316202 9.64361077 -29.12109375 3.83984375 C-20.39974101 -4.32270378 -10.45092771 -5.69173601 0 0 Z " fill="#020101" transform="translate(366.6640625,319.4453125)"/>
<path d="M0 0 C3 2.0625 3 2.0625 5 5 C5.15129568 9.31192698 4.70478473 11.21466844 1.8125 14.4375 C-1.58329335 16.32405186 -3.18309127 16.79518932 -7 16 C-9.9375 13.375 -9.9375 13.375 -12 10 C-12.0732472 6.3376398 -11.43188056 4.63121004 -9.375 1.625 C-6.00735985 -0.67917484 -3.99807408 -0.63127485 0 0 Z " fill="#A96244" transform="translate(358,331)"/>
</svg>
